<?xml version="1.0" encoding="utf-8"?>
<!-- Generator: Adobe Illustrator 14.0.0, SVG Export Plug-In . SVG Version: 6.00 Build 43363)  -->
<!DOCTYPE svg PUBLIC "-//W3C//DTD SVG 1.1//EN" "http://www.w3.org/Graphics/SVG/1.1/DTD/svg11.dtd">
<svg version="1.1" id="图层_1" xmlns="http://www.w3.org/2000/svg" xmlns:xlink="http://www.w3.org/1999/xlink" x="0px" y="0px"
	 width="1600px" height="1000px" viewBox="0 0 1600 1000" enable-background="new 0 0 1600 1000" xml:space="preserve">
<symbol  id="RSS" viewBox="-27.938 -27.782 55.875 55.564">
	<path id="circle_3_" fill="#1FC2FF" d="M-12.775-20.423c0-4.013-3.396-7.247-7.59-7.247c-4.178,0-7.572,3.237-7.572,7.247
		c0,3.997,3.395,7.269,7.572,7.269C-16.172-13.154-12.775-16.426-12.775-20.423z"/>
	<path fill="#5FDFFF" d="M8.733-27.782h-9.868c-0.128,7.038-2.916,13.628-7.882,18.602c-4.967,4.979-11.533,7.772-18.532,7.903
		v9.835C-7.661,8.289,8.466-7.864,8.733-27.782L8.733-27.782z"/>
	<path fill="#33CEFF" d="M27.938-27.782H18.09C17.819-2.688-2.495,17.677-27.528,17.949v9.833
		C2.936,27.508,27.669,2.734,27.938-27.782L27.938-27.782z"/>
</symbol>
<polyline fill="#FFFFFF" stroke="#000000" stroke-width="10" points="321,778 284,778 284,218 1284,218 1284,778 1081.09,778 "/>
<line fill="none" stroke="#000000" stroke-width="10" x1="380" y1="778" x2="342" y2="778"/>
<line fill="none" stroke="#000000" stroke-width="10" x1="424.5" y1="778" x2="377.41" y2="778"/>
<line fill="none" stroke="#000000" stroke-width="10" x1="928" y1="778" x2="456" y2="778"/>
<line fill="none" stroke="#000000" stroke-width="10" x1="1051" y1="778" x2="956" y2="778"/>
<line fill="none" stroke="#646464" stroke-width="7" x1="377.898" y1="451.059" x2="1025.363" y2="451.059"/>
<line fill="none" stroke="#646464" stroke-width="7" x1="381.41" y1="773.061" x2="381.41" y2="448.059"/>
<g>
	
		<use xlink:href="#RSS"  width="55.875" height="55.564" x="-27.938" y="-27.782" transform="matrix(-0.3516 0.3913 0.4014 0.3609 938.9277 268.9336)" overflow="visible"/>
	
		<use xlink:href="#RSS"  width="55.875" height="55.564" x="-27.938" y="-27.782" transform="matrix(-0.3516 0.3913 0.4014 0.3609 939.3447 269.1772)" overflow="visible"/>
</g>
<g>
	
		<use xlink:href="#RSS"  width="55.875" height="55.564" x="-27.938" y="-27.782" transform="matrix(-0.3836 0.36 -0.3694 -0.3936 1252.377 376.5195)" overflow="visible"/>
	
		<use xlink:href="#RSS"  width="55.875" height="55.564" id="XMLID_2_" x="-27.938" y="-27.782" transform="matrix(-0.3836 0.36 -0.3694 -0.3936 1252.123 376.1074)" overflow="visible"/>
</g>
<g>
	
		<use xlink:href="#RSS"  width="55.875" height="55.564" x="-27.938" y="-27.782" transform="matrix(-0.3728 -0.3628 -0.3809 0.3731 1253.1094 615.0029)" overflow="visible"/>
	
		<use xlink:href="#RSS"  width="55.875" height="55.564" x="-27.938" y="-27.782" transform="matrix(-0.3728 -0.3628 -0.3809 0.3731 1252.8438 615.3975)" overflow="visible"/>
</g>
<g>
	
		<use xlink:href="#RSS"  width="55.875" height="55.564" x="-27.938" y="-27.782" transform="matrix(-0.3649 -0.379 -0.3889 0.3743 1002.5498 601.9199)" overflow="visible"/>
	
		<use xlink:href="#RSS"  width="55.875" height="55.564" x="-27.938" y="-27.782" transform="matrix(-0.3649 -0.379 -0.3889 0.3743 1002.2764 602.3193)" overflow="visible"/>
</g>
<g>
	
		<use xlink:href="#RSS"  width="55.875" height="55.564" x="-27.938" y="-27.782" transform="matrix(0.3526 -0.3905 -0.4006 -0.3617 727.2324 754.2822)" overflow="visible"/>
	
		<use xlink:href="#RSS"  width="55.875" height="55.564" x="-27.938" y="-27.782" transform="matrix(0.3526 -0.3905 -0.4006 -0.3617 726.814 754.0381)" overflow="visible"/>
</g>
<g>
	
		<use xlink:href="#RSS"  width="55.875" height="55.564" x="-27.938" y="-27.782" transform="matrix(0.4185 0.3187 0.3271 -0.4294 398.8433 591.2861)" overflow="visible"/>
	
		<use xlink:href="#RSS"  width="55.875" height="55.564" x="-27.938" y="-27.782" transform="matrix(0.4185 0.3187 0.3271 -0.4294 399.0527 590.8496)" overflow="visible"/>
</g>
<text transform="matrix(1 0 0 1 534.8184 279.2275)" font-family="'ArialMT'" font-size="24">AP3</text>
<text transform="matrix(1 0 0 1 534.8184 279.2275)" fill="none" stroke="#000000" font-family="'ArialMT'" font-size="24">AP3</text>
<text transform="matrix(1 0 0 1 975.3262 272.8262)" font-family="'ArialMT'" font-size="24">AP6</text>
<text transform="matrix(1 0 0 1 975.3262 272.8262)" fill="none" stroke="#000000" font-family="'ArialMT'" font-size="24">AP6</text>
<text transform="matrix(1 0 0 1 1186.2266 395.7627)" font-family="'ArialMT'" font-size="24">AP5</text>
<text transform="matrix(1 0 0 1 1185.5898 395.7627)" fill="none" stroke="#000000" font-family="'ArialMT'" font-size="24">AP5</text>
<text transform="matrix(1 0 0 1 1189.2266 630.0957)" font-family="'ArialMT'" font-size="24">AP4</text>
<text transform="matrix(1 0 0 1 1189.2266 630.0957)" fill="none" stroke="#000000" font-family="'ArialMT'" font-size="24">AP4</text>
<text transform="matrix(1 0 0 1 939.9092 615.6943)" font-family="'ArialMT'" font-size="24">AP1</text>
<text transform="matrix(1 0 0 1 939.9092 615.6943)" fill="none" stroke="#000000" font-family="'ArialMT'" font-size="24">AP1</text>
<text transform="matrix(1 0 0 1 743 769)" font-family="'ArialMT'" font-size="24">AP2</text>
<text transform="matrix(1 0 0 1 743 769)" fill="none" stroke="#000000" font-family="'ArialMT'" font-size="24">AP2</text>
<text transform="matrix(1 0 0 1 423 601.0723)" font-family="'ArialMT'" font-size="24">AP7</text>
<text transform="matrix(1 0 0 1 423 601.0723)" fill="none" stroke="#000000" font-family="'ArialMT'" font-size="24">AP7</text>
<line fill="none" stroke="#646464" stroke-width="7" x1="610" y1="448.059" x2="610" y2="773.061"/>
<line fill="none" stroke="#646464" stroke-width="7" x1="1022.363" y1="448.059" x2="1022.363" y2="721"/>
<line fill="none" stroke="#646464" stroke-width="7" x1="1023.363" y1="742.58" x2="1023.363" y2="773.061"/>
<g>
	
		<use xlink:href="#RSS"  width="55.875" height="55.564" x="-27.938" y="-27.782" transform="matrix(-0.368 -0.376 0.3857 -0.3776 938.29 238.8618)" overflow="visible"/>
	
		<use xlink:href="#RSS"  width="55.875" height="55.564" id="XMLID_3_" x="-27.938" y="-27.782" transform="matrix(-0.368 -0.376 0.3857 -0.3776 938.6953 238.6006)" overflow="visible"/>
</g>
<g>
	
		<use xlink:href="#RSS"  width="55.875" height="55.564" x="-27.938" y="-27.782" transform="matrix(0.3609 -0.3827 0.3928 0.3703 1283.2031 376.7095)" overflow="visible"/>
	
		<use xlink:href="#RSS"  width="55.875" height="55.564" id="XMLID_1_" x="-27.938" y="-27.782" transform="matrix(0.3609 -0.3827 0.3928 0.3703 1283.4805 377.105)" overflow="visible"/>
</g>
<g>
	
		<use xlink:href="#RSS"  width="55.875" height="55.564" x="-27.938" y="-27.782" transform="matrix(0.352 -0.391 0.4012 0.3611 1032.7979 600.9443)" overflow="visible"/>
	
		<use xlink:href="#RSS"  width="55.875" height="55.564" x="-27.938" y="-27.782" transform="matrix(0.352 -0.391 0.4012 0.3611 1033.085 601.334)" overflow="visible"/>
</g>
<g>
	
		<use xlink:href="#RSS"  width="55.875" height="55.564" x="-27.938" y="-27.782" transform="matrix(-0.3752 -0.3687 -0.3784 0.385 368.1079 592.96)" overflow="visible"/>
	
		<use xlink:href="#RSS"  width="55.875" height="55.564" x="-27.938" y="-27.782" transform="matrix(-0.3752 -0.3687 -0.3784 0.385 367.8457 593.3672)" overflow="visible"/>
</g>
<g>
	
		<use xlink:href="#RSS"  width="55.875" height="55.564" x="-27.938" y="-27.782" transform="matrix(-0.351 0.3919 0.4021 0.3602 728.1318 784.7139)" overflow="visible"/>
	
		<use xlink:href="#RSS"  width="55.875" height="55.564" x="-27.938" y="-27.782" transform="matrix(-0.351 0.3919 0.4021 0.3602 728.5508 784.9551)" overflow="visible"/>
</g>
<g>
	
		<use xlink:href="#RSS"  width="55.875" height="55.564" x="-27.938" y="-27.782" transform="matrix(0.3752 0.3687 0.3783 -0.3851 1283.502 615.041)" overflow="visible"/>
	
		<use xlink:href="#RSS"  width="55.875" height="55.564" x="-27.938" y="-27.782" transform="matrix(0.3752 0.3687 0.3783 -0.3851 1283.7646 614.6338)" overflow="visible"/>
</g>
<g>
	
		<use xlink:href="#RSS"  width="55.875" height="55.564" x="-27.938" y="-27.782" transform="matrix(-0.3697 -0.3743 0.384 -0.3793 510.939 244.9517)" overflow="visible"/>
	
		<use xlink:href="#RSS"  width="55.875" height="55.564" id="XMLID_5_" x="-27.938" y="-27.782" transform="matrix(-0.3697 -0.3743 0.384 -0.3793 511.3433 244.689)" overflow="visible"/>
</g>
<g>
	
		<use xlink:href="#RSS"  width="55.875" height="55.564" x="-27.938" y="-27.782" transform="matrix(0.3693 0.3747 -0.3844 0.3789 510.4111 275.2949)" overflow="visible"/>
	
		<use xlink:href="#RSS"  width="55.875" height="55.564" id="XMLID_4_" x="-27.938" y="-27.782" transform="matrix(0.3693 0.3747 -0.3844 0.3789 510.0059 275.5576)" overflow="visible"/>
</g>
</svg>
