<?xml version="1.0" encoding="utf-8"?>
<!-- Generator: Adobe Illustrator 16.0.0, SVG Export Plug-In . SVG Version: 6.00 Build 0)  -->
<!DOCTYPE svg PUBLIC "-//W3C//DTD SVG 1.1//EN" "http://www.w3.org/Graphics/SVG/1.1/DTD/svg11.dtd">
<svg version="1.1" id="图层_1" xmlns="http://www.w3.org/2000/svg" xmlns:xlink="http://www.w3.org/1999/xlink" x="0px" y="0px"
	 width="1600px" height="1000px" viewBox="0 0 1600 1000" enable-background="new 0 0 1600 1000" xml:space="preserve">
<symbol  id="RSS" viewBox="-27.938 -27.782 55.875 55.564">
	<path id="circle_1_" fill="#1FC2FF" d="M-12.775-20.423c0-4.013-3.396-7.247-7.59-7.247c-4.178,0-7.572,3.237-7.572,7.247
		c0,3.997,3.395,7.269,7.572,7.269C-16.172-13.154-12.775-16.426-12.775-20.423z"/>
	<path fill="#5FDFFF" d="M8.73-27.782h-9.868C-1.266-20.744-4.051-14.154-9.02-9.18c-4.967,4.979-11.533,7.771-18.532,7.9v9.835
		C-7.664,8.289,8.463-7.864,8.73-27.782L8.73-27.782z"/>
	<path fill="#33CEFF" d="M27.938-27.782h-9.848C17.816-2.688-2.498,17.677-27.528,17.949v9.833
		C2.936,27.508,27.667,2.734,27.938-27.782L27.938-27.782z"/>
</symbol>
<polyline display="none" fill="#FFFFFF" stroke="#000000" stroke-width="10" points="321,778 284,778 284,218 1284,218 1284,778 
	1081.09,778 "/>
<line fill="none" stroke="#000000" stroke-width="8" x1="494.535" y1="701.778" x2="457.605" y2="701.778"/>
<line fill="none" stroke="#000000" stroke-width="8" x1="825.5" y1="702.273" x2="516.465" y2="702.273"/>
<line fill="none" stroke="#000000" stroke-width="8" x1="981.56" y1="701.778" x2="848.5" y2="701.778"/>
<line fill="none" stroke="#646464" stroke-width="7" x1="467.5" y1="465.469" x2="963.613" y2="465.469"/>
<line fill="none" stroke="#646464" stroke-width="7" x1="465.5" y1="697.208" x2="465.5" y2="462.3"/>
<g>
	
		<use xlink:href="#RSS"  width="55.875" height="55.564" x="-27.938" y="-27.782" transform="matrix(-0.2598 0.2828 0.2966 0.2609 872.2188 330.1084)" overflow="visible"/>
	
		<use xlink:href="#RSS"  width="55.875" height="55.564" x="-27.938" y="-27.782" transform="matrix(-0.2598 0.2828 0.2966 0.2609 872.5264 330.2842)" overflow="visible"/>
</g>
<g>
	
		<use xlink:href="#RSS"  width="55.875" height="55.564" x="-27.938" y="-27.782" transform="matrix(-0.2835 0.2602 -0.273 -0.2845 1140.3779 436.2168)" overflow="visible"/>
	
		<use xlink:href="#RSS"  width="55.875" height="55.564" id="XMLID_2_" x="-27.938" y="-27.782" transform="matrix(-0.2835 0.2602 -0.273 -0.2845 1140.1895 435.9189)" overflow="visible"/>
</g>
<g>
	
		<use xlink:href="#RSS"  width="55.875" height="55.564" x="-27.938" y="-27.782" transform="matrix(-0.2755 -0.2622 -0.2815 0.2697 1142.9189 601.6396)" overflow="visible"/>
	
		<use xlink:href="#RSS"  width="55.875" height="55.564" x="-27.938" y="-27.782" transform="matrix(-0.2755 -0.2622 -0.2815 0.2697 1142.7227 601.9248)" overflow="visible"/>
</g>
<g>
	
		<use xlink:href="#RSS"  width="55.875" height="55.564" x="-27.938" y="-27.782" transform="matrix(-0.2697 -0.2739 -0.2874 0.2705 927.7549 597.46)" overflow="visible"/>
	
		<use xlink:href="#RSS"  width="55.875" height="55.564" x="-27.938" y="-27.782" transform="matrix(-0.2697 -0.2739 -0.2874 0.2705 927.5527 597.749)" overflow="visible"/>
</g>
<g>
	
		<use xlink:href="#RSS"  width="55.875" height="55.564" x="-27.938" y="-27.782" transform="matrix(0.2606 -0.2822 -0.296 -0.2614 708.2939 689.6357)" overflow="visible"/>
	
		<use xlink:href="#RSS"  width="55.875" height="55.564" x="-27.938" y="-27.782" transform="matrix(0.2606 -0.2822 -0.296 -0.2614 707.9844 689.459)" overflow="visible"/>
</g>
<g>
	
		<use xlink:href="#RSS"  width="55.875" height="55.564" x="-27.938" y="-27.782" transform="matrix(0.3093 0.2304 0.2417 -0.3104 485.6123 587.8232)" overflow="visible"/>
	
		<use xlink:href="#RSS"  width="55.875" height="55.564" x="-27.938" y="-27.782" transform="matrix(0.3093 0.2304 0.2417 -0.3104 485.7676 587.5078)" overflow="visible"/>
</g>
<text transform="matrix(1.0224 0 0 1 591.709 333.4893)" font-family="'ArialMT'" font-size="17.3469">AP3</text>
<text transform="matrix(1.0224 0 0 1 899.1172 332.9219)" font-family="'ArialMT'" font-size="17.3469">AP6</text>
<text transform="matrix(1.0224 0 0 1 1091.4922 450.126)" font-family="'ArialMT'" font-size="17.3469">AP5</text>
<text transform="matrix(1.0224 0 0 1 1095.709 612.5488)" font-family="'ArialMT'" font-size="17.3469">AP4</text>
<text transform="matrix(1.0224 0 0 1 881.4629 607.416)" font-family="'ArialMT'" font-size="17.3469">AP1</text>
<text transform="matrix(1.0224 0 0 1 726.9463 686.1924)" font-family="'ArialMT'" font-size="17.3469">AP2</text>
<text transform="matrix(1.0224 0 0 1 503.4648 594.8965)" font-family="'ArialMT'" font-size="17.3469">AP7</text>
<line fill="none" stroke="#646464" stroke-width="7" x1="655.659" y1="463.3" x2="655.659" y2="698.208"/>
<line fill="none" stroke="#646464" stroke-width="7" x1="960.129" y1="465.997" x2="960.129" y2="663.275"/>
<line fill="none" stroke="#646464" stroke-width="7" x1="960.136" y1="675.177" x2="960.136" y2="697.208"/>
<g>
	
		<use xlink:href="#RSS"  width="55.875" height="55.564" x="-27.938" y="-27.782" transform="matrix(-0.272 -0.2718 0.285 -0.2729 871.7471 308.3726)" overflow="visible"/>
	
		<use xlink:href="#RSS"  width="55.875" height="55.564" id="XMLID_3_" x="-27.938" y="-27.782" transform="matrix(-0.272 -0.2718 0.285 -0.2729 872.0469 308.1841)" overflow="visible"/>
</g>
<g>
	
		<use xlink:href="#RSS"  width="55.875" height="55.564" x="-27.938" y="-27.782" transform="matrix(0.2667 -0.2766 0.2903 0.2676 1163.1582 436.3545)" overflow="visible"/>
	
		<use xlink:href="#RSS"  width="55.875" height="55.564" id="XMLID_1_" x="-27.938" y="-27.782" transform="matrix(0.2667 -0.2766 0.2903 0.2676 1163.3633 436.6406)" overflow="visible"/>
</g>
<g>
	
		<use xlink:href="#RSS"  width="55.875" height="55.564" x="-27.938" y="-27.782" transform="matrix(0.2601 -0.2826 0.2965 0.261 950.1074 596.7549)" overflow="visible"/>
	
		<use xlink:href="#RSS"  width="55.875" height="55.564" x="-27.938" y="-27.782" transform="matrix(0.2601 -0.2826 0.2965 0.261 950.3203 597.0371)" overflow="visible"/>
</g>
<g>
	
		<use xlink:href="#RSS"  width="55.875" height="55.564" x="-27.938" y="-27.782" transform="matrix(-0.2773 -0.2665 -0.2796 0.2783 462.9004 589.0332)" overflow="visible"/>
	
		<use xlink:href="#RSS"  width="55.875" height="55.564" x="-27.938" y="-27.782" transform="matrix(-0.2773 -0.2665 -0.2796 0.2783 462.7061 589.3281)" overflow="visible"/>
</g>
<g>
	
		<use xlink:href="#RSS"  width="55.875" height="55.564" x="-27.938" y="-27.782" transform="matrix(-0.2594 0.2833 0.2972 0.2603 708.959 711.6309)" overflow="visible"/>
	
		<use xlink:href="#RSS"  width="55.875" height="55.564" x="-27.938" y="-27.782" transform="matrix(-0.2594 0.2833 0.2972 0.2603 709.2686 711.8057)" overflow="visible"/>
</g>
<g>
	
		<use xlink:href="#RSS"  width="55.875" height="55.564" x="-27.938" y="-27.782" transform="matrix(0.2773 0.2665 0.2796 -0.2783 1165.3789 601.667)" overflow="visible"/>
	
		<use xlink:href="#RSS"  width="55.875" height="55.564" x="-27.938" y="-27.782" transform="matrix(0.2773 0.2665 0.2796 -0.2783 1165.5732 601.373)" overflow="visible"/>
</g>
<g>
	
		<use xlink:href="#RSS"  width="55.875" height="55.564" x="-27.938" y="-27.782" transform="matrix(-0.2732 -0.2705 0.2838 -0.2742 574.0625 308.7153)" overflow="visible"/>
	
		<use xlink:href="#RSS"  width="55.875" height="55.564" id="XMLID_5_" x="-27.938" y="-27.782" transform="matrix(-0.2732 -0.2705 0.2838 -0.2742 574.3613 308.5249)" overflow="visible"/>
</g>
<g>
	
		<use xlink:href="#RSS"  width="55.875" height="55.564" x="-27.938" y="-27.782" transform="matrix(0.2729 0.2708 -0.2841 0.2739 573.6719 330.6465)" overflow="visible"/>
	
		<use xlink:href="#RSS"  width="55.875" height="55.564" id="XMLID_4_" x="-27.938" y="-27.782" transform="matrix(0.2729 0.2708 -0.2841 0.2739 573.3721 330.8364)" overflow="visible"/>
</g>
<line fill="none" stroke="#000000" stroke-width="8" x1="441.334" y1="701.778" x2="410.679" y2="701.778"/>
<line fill="none" stroke="#000000" stroke-width="8" x1="414.374" y1="705.67" x2="414.374" y2="297.92"/>
<path fill="none" stroke="#000000" stroke-width="8" d="M410.679,298.366h747.292H410.679z"/>
<line fill="none" stroke="#000000" stroke-width="8" x1="1153.895" y1="296.92" x2="1153.895" y2="705.296"/>
<line fill="none" stroke="#000000" stroke-width="8" x1="1157.971" y1="701.683" x2="1003.36" y2="701.683"/>
<rect x="398.02" y="304.03" fill="none" width="748.61" height="411.266"/>
<rect id="_x3C_切片_x3E_" x="393" y="236.5" fill="none" width="31" height="17"/>
<rect x="404.5" y="294.5" fill="none" width="745.395" height="410.796"/>
<rect x="1153.436" y="525.5" fill="none" width="10.064" height="1"/>
<rect id="_x3C_切片_x3E__1_" x="410.5" y="292.5" fill="none" width="748" height="414"/>
<line fill="none" stroke="#000000" stroke-width="8" x1="414.374" y1="705.67" x2="414.374" y2="788.5"/>
<line fill="none" stroke="#000000" stroke-width="8" x1="414.374" y1="784.5" x2="1157.857" y2="784.5"/>
<line fill="none" stroke="#000000" stroke-width="8" x1="1153.933" y1="698.208" x2="1153.933" y2="780.5"/>
<rect id="_x3C_切片_x3E__2_" x="409.5" y="292.5" fill="none" width="748" height="496"/>
<rect id="_x3C_切片_x3E__3_" x="410.5" y="292.5" fill="none" width="748" height="496"/>
<text transform="matrix(1.0224 0 0 1 431.4648 436.0615)" font-family="'ArialMT'" font-size="17">AP8</text>
<text transform="matrix(1.0224 0 0 1 431.4648 664.9111)" font-family="'ArialMT'" font-size="17.3469">AP9</text>
<g>
	
		<use xlink:href="#RSS"  width="55.875" height="55.564" x="-27.938" y="-27.782" transform="matrix(0.3093 0.2304 0.2417 -0.3104 425.9482 428.2285)" overflow="visible"/>
	
		<use xlink:href="#RSS"  width="55.875" height="55.564" x="-27.938" y="-27.782" transform="matrix(0.3093 0.2304 0.2417 -0.3104 426.1035 427.9131)" overflow="visible"/>
</g>
<use xlink:href="#RSS"  width="55.875" height="55.564" x="-27.938" y="-27.782" transform="matrix(-0.2773 -0.2665 -0.2796 0.2783 403.042 429.7334)" overflow="visible" enable-background="new    "/>
<g>
	
		<use xlink:href="#RSS"  width="55.875" height="55.564" x="-27.938" y="-27.782" transform="matrix(0.3093 0.2304 0.2417 -0.3104 422.1982 662.6299)" overflow="visible"/>
	
		<use xlink:href="#RSS"  width="55.875" height="55.564" x="-27.938" y="-27.782" transform="matrix(0.3093 0.2304 0.2417 -0.3104 422.3535 662.3145)" overflow="visible"/>
</g>
<use xlink:href="#RSS"  width="55.875" height="55.564" x="-27.938" y="-27.782" transform="matrix(-0.2773 -0.2665 -0.2796 0.2783 399.293 664.1348)" overflow="visible" enable-background="new    "/>
</svg>
